<?xml version="1.0" standalone="no"?>
<!DOCTYPE svg PUBLIC "-//W3C//DTD SVG 20010904//EN"
 "http://www.w3.org/TR/2001/REC-SVG-20010904/DTD/svg10.dtd">
<svg version="1.0" xmlns="http://www.w3.org/2000/svg"
 width="540.000000pt" height="60.000000pt" viewBox="0 0 540.000000 60.000000"
 preserveAspectRatio="xMidYMid meet">

<g transform="translate(0.000000,60.000000) scale(0.100000,-0.100000)"
fill="#000000" stroke="none">
<path d="M4470 522 l0 -57 113 -57 112 -56 60 30 60 31 -165 83 c-91 46 -168
83 -172 83 -5 1 -8 -25 -8 -57z"/>
<path d="M4928 353 l-458 -226 0 -59 c0 -32 4 -58 10 -58 5 0 215 102 465 227
l455 228 0 57 c0 32 -3 58 -7 58 -5 -1 -214 -103 -465 -227z"/>
<path d="M5115 208 l-60 -31 165 -83 c91 -46 168 -83 173 -83 4 -1 7 25 7 57
l0 57 -113 57 -112 56 -60 -30z"/>
</g>
</svg>
